<svg width="336" height="446" viewBox="0 0 336 446" fill="none" xmlns="http://www.w3.org/2000/svg">
<g id="Component 1">
<path id="Polygon 1" d="M187.033 63.2394L240.955 162.575C248.369 176.235 238.48 192.855 222.938 192.855L115.095 192.855C99.5529 192.855 89.6637 176.235 97.0783 162.576L151 63.2394C158.758 48.9458 179.274 48.9458 187.033 63.2394Z" fill="#02B5DC" stroke="#B39696"/>
<circle id="Ellipse 1" cx="168.5" cy="139.5" r="68" fill="#FFFCFC" stroke="#BCB0B0"/>
<g id="ToTheWorld Travel experiences" filter="url(#filter0_d_5:9)">
<path d="M121.104 129.4H116.204V142H114.404V129.4H109.504V127.8H121.104V129.4Z" fill="#02B5DC"/>
<path d="M127.429 142.2C126.389 142.2 125.469 141.953 124.669 141.46C123.883 140.953 123.269 140.293 122.829 139.48C122.389 138.653 122.169 137.76 122.169 136.8C122.169 135.827 122.389 134.933 122.829 134.12C123.283 133.293 123.903 132.633 124.689 132.14C125.489 131.633 126.403 131.38 127.429 131.38C128.469 131.38 129.383 131.633 130.169 132.14C130.969 132.633 131.589 133.293 132.029 134.12C132.483 134.933 132.709 135.827 132.709 136.8C132.709 137.76 132.483 138.653 132.029 139.48C131.589 140.293 130.976 140.953 130.189 141.46C129.403 141.953 128.483 142.2 127.429 142.2ZM123.969 136.82C123.969 137.54 124.123 138.193 124.429 138.78C124.749 139.367 125.169 139.833 125.689 140.18C126.209 140.513 126.789 140.68 127.429 140.68C128.069 140.68 128.649 140.507 129.169 140.16C129.703 139.813 130.123 139.347 130.429 138.76C130.749 138.16 130.909 137.5 130.909 136.78C130.909 136.06 130.749 135.407 130.429 134.82C130.123 134.233 129.703 133.767 129.169 133.42C128.649 133.073 128.069 132.9 127.429 132.9C126.789 132.9 126.209 133.08 125.689 133.44C125.169 133.787 124.749 134.253 124.429 134.84C124.123 135.427 123.969 136.087 123.969 136.82ZM156.187 142H154.427V136.16C154.427 135.093 154.234 134.293 153.847 133.76C153.474 133.227 152.934 132.96 152.227 132.96C151.774 132.96 151.314 133.08 150.847 133.32C150.394 133.56 149.994 133.887 149.647 134.3C149.3 134.7 149.047 135.167 148.887 135.7V142H147.127V127.4H148.887V133.8C149.3 133.053 149.86 132.467 150.567 132.04C151.287 131.6 152.06 131.38 152.887 131.38C153.714 131.38 154.367 131.573 154.847 131.96C155.327 132.347 155.667 132.873 155.867 133.54C156.08 134.193 156.187 134.933 156.187 135.76V142ZM163.544 142.2C162.504 142.2 161.584 141.953 160.784 141.46C159.984 140.967 159.357 140.307 158.904 139.48C158.451 138.653 158.224 137.753 158.224 136.78C158.224 135.793 158.451 134.893 158.904 134.08C159.357 133.267 159.984 132.613 160.784 132.12C161.597 131.627 162.524 131.38 163.564 131.38C164.617 131.38 165.531 131.633 166.304 132.14C167.091 132.633 167.697 133.287 168.124 134.1C168.564 134.9 168.784 135.767 168.784 136.7C168.784 136.993 168.771 137.22 168.744 137.38H160.084C160.137 138.06 160.324 138.667 160.644 139.2C160.977 139.72 161.404 140.133 161.924 140.44C162.444 140.733 163.004 140.88 163.604 140.88C164.244 140.88 164.844 140.72 165.404 140.4C165.977 140.08 166.371 139.66 166.584 139.14L168.104 139.56C167.771 140.333 167.191 140.967 166.364 141.46C165.537 141.953 164.597 142.2 163.544 142.2ZM160.024 136.16H167.144C167.091 135.48 166.897 134.88 166.564 134.36C166.231 133.84 165.804 133.433 165.284 133.14C164.764 132.847 164.191 132.7 163.564 132.7C162.951 132.7 162.384 132.847 161.864 133.14C161.344 133.433 160.917 133.84 160.584 134.36C160.264 134.88 160.077 135.48 160.024 136.16ZM196.277 142.2C195.237 142.2 194.317 141.953 193.517 141.46C192.73 140.953 192.117 140.293 191.677 139.48C191.237 138.653 191.017 137.76 191.017 136.8C191.017 135.827 191.237 134.933 191.677 134.12C192.13 133.293 192.75 132.633 193.537 132.14C194.337 131.633 195.25 131.38 196.277 131.38C197.317 131.38 198.23 131.633 199.017 132.14C199.817 132.633 200.437 133.293 200.877 134.12C201.33 134.933 201.557 135.827 201.557 136.8C201.557 137.76 201.33 138.653 200.877 139.48C200.437 140.293 199.824 140.953 199.037 141.46C198.25 141.953 197.33 142.2 196.277 142.2ZM192.817 136.82C192.817 137.54 192.97 138.193 193.277 138.78C193.597 139.367 194.017 139.833 194.537 140.18C195.057 140.513 195.637 140.68 196.277 140.68C196.917 140.68 197.497 140.507 198.017 140.16C198.55 139.813 198.97 139.347 199.277 138.76C199.597 138.16 199.757 137.5 199.757 136.78C199.757 136.06 199.597 135.407 199.277 134.82C198.97 134.233 198.55 133.767 198.017 133.42C197.497 133.073 196.917 132.9 196.277 132.9C195.637 132.9 195.057 133.08 194.537 133.44C194.017 133.787 193.597 134.253 193.277 134.84C192.97 135.427 192.817 136.087 192.817 136.82ZM209.21 133.1C208.33 133.113 207.55 133.34 206.87 133.78C206.203 134.207 205.73 134.8 205.45 135.56V142H203.69V131.56H205.33V133.98C205.69 133.26 206.163 132.68 206.75 132.24C207.35 131.787 207.976 131.533 208.63 131.48C208.763 131.48 208.876 131.48 208.97 131.48C209.063 131.48 209.143 131.487 209.21 131.5V133.1ZM210.995 127.4H212.755V139.3C212.755 139.873 212.835 140.227 212.995 140.36C213.155 140.493 213.348 140.56 213.575 140.56C213.855 140.56 214.122 140.533 214.375 140.48C214.628 140.413 214.842 140.347 215.015 140.28L215.295 141.72C215.002 141.84 214.655 141.94 214.255 142.02C213.855 142.1 213.502 142.14 213.195 142.14C212.515 142.14 211.975 141.947 211.575 141.56C211.188 141.173 210.995 140.633 210.995 139.94V127.4ZM215.998 136.8C215.998 135.813 216.198 134.913 216.598 134.1C217.011 133.273 217.571 132.613 218.278 132.12C218.998 131.627 219.818 131.38 220.738 131.38C221.578 131.38 222.331 131.6 222.998 132.04C223.664 132.48 224.184 133.013 224.558 133.64V127.4H226.318V140C226.318 140.413 226.504 140.627 226.878 140.64V142C226.544 142.053 226.284 142.08 226.098 142.08C225.751 142.08 225.444 141.96 225.178 141.72C224.924 141.48 224.798 141.213 224.798 140.92V140.04C224.384 140.707 223.831 141.233 223.138 141.62C222.444 142.007 221.724 142.2 220.978 142.2C220.018 142.2 219.158 141.953 218.398 141.46C217.651 140.953 217.064 140.293 216.638 139.48C216.211 138.653 215.998 137.76 215.998 136.8ZM224.558 138.34V135.34C224.398 134.887 224.138 134.48 223.778 134.12C223.418 133.747 223.011 133.453 222.558 133.24C222.118 133.013 221.678 132.9 221.238 132.9C220.558 132.9 219.958 133.087 219.438 133.46C218.931 133.833 218.531 134.32 218.238 134.92C217.958 135.52 217.818 136.153 217.818 136.82C217.818 137.513 217.971 138.153 218.278 138.74C218.598 139.327 219.031 139.8 219.578 140.16C220.124 140.507 220.731 140.68 221.398 140.68C221.824 140.68 222.264 140.58 222.718 140.38C223.171 140.167 223.571 139.88 223.918 139.52C224.264 139.16 224.478 138.767 224.558 138.34ZM115.574 156.18H112.144V165H110.884V156.18H107.454V155.06H115.574V156.18ZM119.539 158.77C118.923 158.779 118.377 158.938 117.901 159.246C117.434 159.545 117.103 159.96 116.907 160.492V165H115.675V157.692H116.823V159.386C117.075 158.882 117.406 158.476 117.817 158.168C118.237 157.851 118.675 157.673 119.133 157.636C119.226 157.636 119.305 157.636 119.371 157.636C119.436 157.636 119.492 157.641 119.539 157.65V158.77ZM120.187 162.886C120.187 162.419 120.317 162.018 120.579 161.682C120.849 161.337 121.218 161.071 121.685 160.884C122.151 160.697 122.693 160.604 123.309 160.604C123.635 160.604 123.981 160.632 124.345 160.688C124.709 160.735 125.031 160.809 125.311 160.912V160.38C125.311 159.82 125.143 159.381 124.807 159.064C124.471 158.737 123.995 158.574 123.379 158.574C122.977 158.574 122.59 158.649 122.217 158.798C121.853 158.938 121.465 159.143 121.055 159.414L120.607 158.546C121.083 158.219 121.559 157.977 122.035 157.818C122.511 157.65 123.005 157.566 123.519 157.566C124.452 157.566 125.189 157.827 125.731 158.35C126.272 158.863 126.543 159.582 126.543 160.506V163.6C126.543 163.889 126.673 164.039 126.935 164.048V165C126.813 165.019 126.706 165.033 126.613 165.042C126.529 165.051 126.459 165.056 126.403 165.056C126.113 165.056 125.894 164.977 125.745 164.818C125.605 164.659 125.525 164.491 125.507 164.314L125.479 163.852C125.161 164.263 124.746 164.58 124.233 164.804C123.719 165.028 123.211 165.14 122.707 165.14C122.221 165.14 121.787 165.042 121.405 164.846C121.022 164.641 120.723 164.37 120.509 164.034C120.294 163.689 120.187 163.306 120.187 162.886ZM124.947 163.404C125.059 163.273 125.147 163.143 125.213 163.012C125.278 162.872 125.311 162.755 125.311 162.662V161.752C124.713 161.519 124.097 161.402 123.463 161.402C122.837 161.402 122.329 161.528 121.937 161.78C121.554 162.023 121.363 162.359 121.363 162.788C121.363 163.021 121.423 163.25 121.545 163.474C121.675 163.689 121.862 163.866 122.105 164.006C122.357 164.146 122.665 164.216 123.029 164.216C123.411 164.216 123.775 164.141 124.121 163.992C124.466 163.833 124.741 163.637 124.947 163.404ZM130.38 165L127.51 157.692H128.798L131.094 163.824L133.39 157.692H134.594L131.724 165H130.38ZM138.815 165.14C138.087 165.14 137.443 164.967 136.883 164.622C136.323 164.277 135.884 163.815 135.567 163.236C135.25 162.657 135.091 162.027 135.091 161.346C135.091 160.655 135.25 160.025 135.567 159.456C135.884 158.887 136.323 158.429 136.883 158.084C137.452 157.739 138.101 157.566 138.829 157.566C139.566 157.566 140.206 157.743 140.747 158.098C141.298 158.443 141.722 158.901 142.021 159.47C142.329 160.03 142.483 160.637 142.483 161.29C142.483 161.495 142.474 161.654 142.455 161.766H136.393C136.43 162.242 136.561 162.667 136.785 163.04C137.018 163.404 137.317 163.693 137.681 163.908C138.045 164.113 138.437 164.216 138.857 164.216C139.305 164.216 139.725 164.104 140.117 163.88C140.518 163.656 140.794 163.362 140.943 162.998L142.007 163.292C141.774 163.833 141.368 164.277 140.789 164.622C140.21 164.967 139.552 165.14 138.815 165.14ZM136.351 160.912H141.335C141.298 160.436 141.162 160.016 140.929 159.652C140.696 159.288 140.397 159.003 140.033 158.798C139.669 158.593 139.268 158.49 138.829 158.49C138.4 158.49 138.003 158.593 137.639 158.798C137.275 159.003 136.976 159.288 136.743 159.652C136.519 160.016 136.388 160.436 136.351 160.912ZM143.88 154.78H145.112V163.11C145.112 163.511 145.168 163.759 145.28 163.852C145.392 163.945 145.528 163.992 145.686 163.992C145.882 163.992 146.069 163.973 146.246 163.936C146.424 163.889 146.573 163.843 146.694 163.796L146.89 164.804C146.685 164.888 146.442 164.958 146.162 165.014C145.882 165.07 145.635 165.098 145.42 165.098C144.944 165.098 144.566 164.963 144.286 164.692C144.016 164.421 143.88 164.043 143.88 163.558V154.78ZM154.209 165.14C153.481 165.14 152.837 164.967 152.277 164.622C151.717 164.277 151.279 163.815 150.961 163.236C150.644 162.657 150.485 162.027 150.485 161.346C150.485 160.655 150.644 160.025 150.961 159.456C151.279 158.887 151.717 158.429 152.277 158.084C152.847 157.739 153.495 157.566 154.223 157.566C154.961 157.566 155.6 157.743 156.141 158.098C156.692 158.443 157.117 158.901 157.415 159.47C157.723 160.03 157.877 160.637 157.877 161.29C157.877 161.495 157.868 161.654 157.849 161.766H151.787C151.825 162.242 151.955 162.667 152.179 163.04C152.413 163.404 152.711 163.693 153.075 163.908C153.439 164.113 153.831 164.216 154.251 164.216C154.699 164.216 155.119 164.104 155.511 163.88C155.913 163.656 156.188 163.362 156.337 162.998L157.401 163.292C157.168 163.833 156.762 164.277 156.183 164.622C155.605 164.967 154.947 165.14 154.209 165.14ZM151.745 160.912H156.729C156.692 160.436 156.557 160.016 156.323 159.652C156.09 159.288 155.791 159.003 155.427 158.798C155.063 158.593 154.662 158.49 154.223 158.49C153.794 158.49 153.397 158.593 153.033 158.798C152.669 159.003 152.371 159.288 152.137 159.652C151.913 160.016 151.783 160.436 151.745 160.912ZM159.519 157.692L161.451 160.38L161.563 160.604L161.689 160.38L163.607 157.692H164.979L162.277 161.36L164.993 165H163.621L161.689 162.326L161.563 162.116L161.451 162.326L159.519 165H158.147L160.863 161.36L158.161 157.692H159.519ZM170.085 165.14C169.488 165.14 168.956 164.991 168.489 164.692C168.023 164.393 167.654 164.015 167.383 163.558V167.982H166.151V157.692H167.243V159.064C167.533 158.616 167.911 158.257 168.377 157.986C168.844 157.706 169.353 157.566 169.903 157.566C170.407 157.566 170.869 157.669 171.289 157.874C171.709 158.079 172.073 158.359 172.381 158.714C172.689 159.069 172.927 159.475 173.095 159.932C173.273 160.38 173.361 160.851 173.361 161.346C173.361 162.037 173.221 162.671 172.941 163.25C172.671 163.829 172.288 164.291 171.793 164.636C171.299 164.972 170.729 165.14 170.085 165.14ZM169.707 164.076C170.193 164.076 170.613 163.945 170.967 163.684C171.322 163.423 171.597 163.082 171.793 162.662C171.999 162.242 172.101 161.803 172.101 161.346C172.101 160.851 171.989 160.399 171.765 159.988C171.551 159.577 171.252 159.251 170.869 159.008C170.496 158.756 170.071 158.63 169.595 158.63C169.306 158.63 168.998 158.705 168.671 158.854C168.354 159.003 168.074 159.204 167.831 159.456C167.598 159.699 167.449 159.969 167.383 160.268V162.354C167.589 162.839 167.901 163.25 168.321 163.586C168.751 163.913 169.213 164.076 169.707 164.076ZM178.108 165.14C177.38 165.14 176.736 164.967 176.176 164.622C175.616 164.277 175.177 163.815 174.86 163.236C174.543 162.657 174.384 162.027 174.384 161.346C174.384 160.655 174.543 160.025 174.86 159.456C175.177 158.887 175.616 158.429 176.176 158.084C176.745 157.739 177.394 157.566 178.122 157.566C178.859 157.566 179.499 157.743 180.04 158.098C180.591 158.443 181.015 158.901 181.314 159.47C181.622 160.03 181.776 160.637 181.776 161.29C181.776 161.495 181.767 161.654 181.748 161.766H175.686C175.723 162.242 175.854 162.667 176.078 163.04C176.311 163.404 176.61 163.693 176.974 163.908C177.338 164.113 177.73 164.216 178.15 164.216C178.598 164.216 179.018 164.104 179.41 163.88C179.811 163.656 180.087 163.362 180.236 162.998L181.3 163.292C181.067 163.833 180.661 164.277 180.082 164.622C179.503 164.967 178.845 165.14 178.108 165.14ZM175.644 160.912H180.628C180.591 160.436 180.455 160.016 180.222 159.652C179.989 159.288 179.69 159.003 179.326 158.798C178.962 158.593 178.561 158.49 178.122 158.49C177.693 158.49 177.296 158.593 176.932 158.798C176.568 159.003 176.269 159.288 176.036 159.652C175.812 160.016 175.681 160.436 175.644 160.912ZM187.009 158.77C186.393 158.779 185.847 158.938 185.371 159.246C184.905 159.545 184.573 159.96 184.377 160.492V165H183.145V157.692H184.293V159.386C184.545 158.882 184.877 158.476 185.287 158.168C185.707 157.851 186.146 157.673 186.603 157.636C186.697 157.636 186.776 157.636 186.841 157.636C186.907 157.636 186.963 157.641 187.009 157.65V158.77ZM188.231 156.32V154.78H189.463V156.32H188.231ZM188.231 165V157.692H189.463V165H188.231ZM194.692 165.14C193.964 165.14 193.32 164.967 192.76 164.622C192.2 164.277 191.761 163.815 191.444 163.236C191.127 162.657 190.968 162.027 190.968 161.346C190.968 160.655 191.127 160.025 191.444 159.456C191.761 158.887 192.2 158.429 192.76 158.084C193.329 157.739 193.978 157.566 194.706 157.566C195.443 157.566 196.083 157.743 196.624 158.098C197.175 158.443 197.599 158.901 197.898 159.47C198.206 160.03 198.36 160.637 198.36 161.29C198.36 161.495 198.351 161.654 198.332 161.766H192.27C192.307 162.242 192.438 162.667 192.662 163.04C192.895 163.404 193.194 163.693 193.558 163.908C193.922 164.113 194.314 164.216 194.734 164.216C195.182 164.216 195.602 164.104 195.994 163.88C196.395 163.656 196.671 163.362 196.82 162.998L197.884 163.292C197.651 163.833 197.245 164.277 196.666 164.622C196.087 164.967 195.429 165.14 194.692 165.14ZM192.228 160.912H197.212C197.175 160.436 197.039 160.016 196.806 159.652C196.573 159.288 196.274 159.003 195.91 158.798C195.546 158.593 195.145 158.49 194.706 158.49C194.277 158.49 193.88 158.593 193.516 158.798C193.152 159.003 192.853 159.288 192.62 159.652C192.396 160.016 192.265 160.436 192.228 160.912ZM206.071 165H204.839V160.912C204.839 160.137 204.718 159.573 204.475 159.218C204.242 158.854 203.883 158.672 203.397 158.672C203.061 158.672 202.725 158.756 202.389 158.924C202.063 159.092 201.769 159.321 201.507 159.61C201.255 159.89 201.073 160.217 200.961 160.59V165H199.729V157.692H200.849V159.26C201.139 158.747 201.554 158.336 202.095 158.028C202.646 157.72 203.243 157.566 203.887 157.566C204.457 157.566 204.895 157.701 205.203 157.972C205.521 158.233 205.745 158.597 205.875 159.064C206.006 159.521 206.071 160.044 206.071 160.632V165ZM211.221 165.14C210.493 165.14 209.849 164.967 209.289 164.622C208.729 164.267 208.29 163.801 207.973 163.222C207.656 162.643 207.497 162.013 207.497 161.332C207.497 160.641 207.651 160.011 207.959 159.442C208.267 158.873 208.701 158.42 209.261 158.084C209.821 157.739 210.47 157.566 211.207 157.566C211.926 157.566 212.551 157.729 213.083 158.056C213.624 158.373 214.026 158.803 214.287 159.344L213.083 159.722C212.896 159.377 212.635 159.111 212.299 158.924C211.963 158.728 211.59 158.63 211.179 158.63C210.731 158.63 210.32 158.747 209.947 158.98C209.583 159.213 209.294 159.535 209.079 159.946C208.864 160.347 208.757 160.809 208.757 161.332C208.757 161.845 208.864 162.312 209.079 162.732C209.303 163.143 209.597 163.469 209.961 163.712C210.334 163.955 210.745 164.076 211.193 164.076C211.482 164.076 211.758 164.025 212.019 163.922C212.29 163.819 212.523 163.684 212.719 163.516C212.924 163.339 213.064 163.147 213.139 162.942L214.343 163.306C214.128 163.838 213.736 164.277 213.167 164.622C212.607 164.967 211.958 165.14 211.221 165.14ZM218.905 165.14C218.177 165.14 217.533 164.967 216.973 164.622C216.413 164.277 215.974 163.815 215.657 163.236C215.339 162.657 215.181 162.027 215.181 161.346C215.181 160.655 215.339 160.025 215.657 159.456C215.974 158.887 216.413 158.429 216.973 158.084C217.542 157.739 218.191 157.566 218.919 157.566C219.656 157.566 220.295 157.743 220.837 158.098C221.387 158.443 221.812 158.901 222.111 159.47C222.419 160.03 222.573 160.637 222.573 161.29C222.573 161.495 222.563 161.654 222.545 161.766H216.483C216.52 162.242 216.651 162.667 216.875 163.04C217.108 163.404 217.407 163.693 217.771 163.908C218.135 164.113 218.527 164.216 218.947 164.216C219.395 164.216 219.815 164.104 220.207 163.88C220.608 163.656 220.883 163.362 221.033 162.998L222.097 163.292C221.863 163.833 221.457 164.277 220.879 164.622C220.3 164.967 219.642 165.14 218.905 165.14ZM216.441 160.912H221.425C221.387 160.436 221.252 160.016 221.019 159.652C220.785 159.288 220.487 159.003 220.123 158.798C219.759 158.593 219.357 158.49 218.919 158.49C218.489 158.49 218.093 158.593 217.729 158.798C217.365 159.003 217.066 159.288 216.833 159.652C216.609 160.016 216.478 160.436 216.441 160.912ZM226.448 165.14C225.842 165.14 225.272 165.042 224.74 164.846C224.208 164.641 223.751 164.337 223.368 163.936L223.844 163.068C224.264 163.46 224.684 163.74 225.104 163.908C225.524 164.076 225.954 164.16 226.392 164.16C226.896 164.16 227.307 164.067 227.624 163.88C227.942 163.684 228.1 163.399 228.1 163.026C228.1 162.755 228.016 162.555 227.848 162.424C227.69 162.293 227.461 162.186 227.162 162.102C226.864 162.009 226.509 161.906 226.098 161.794C225.342 161.579 224.764 161.327 224.362 161.038C223.97 160.739 223.774 160.305 223.774 159.736C223.774 159.045 224.036 158.513 224.558 158.14C225.09 157.757 225.767 157.566 226.588 157.566C227.69 157.566 228.558 157.897 229.192 158.56L228.632 159.414C228.063 158.826 227.358 158.532 226.518 158.532C226.266 158.532 226.019 158.565 225.776 158.63C225.534 158.686 225.333 158.793 225.174 158.952C225.016 159.101 224.936 159.316 224.936 159.596C224.936 159.941 225.076 160.189 225.356 160.338C225.636 160.487 226.047 160.641 226.588 160.8C227.139 160.959 227.615 161.117 228.016 161.276C228.427 161.435 228.744 161.64 228.968 161.892C229.192 162.144 229.304 162.494 229.304 162.942C229.304 163.633 229.043 164.174 228.52 164.566C227.998 164.949 227.307 165.14 226.448 165.14Z" fill="black"/>
<path d="M145.362 129.4H140.462V142H138.662V129.4H133.762V127.8H145.362V129.4Z" fill="#1DBD24"/>
<path d="M176.22 127.88H177.92L179.8 132.82L181.7 127.88H183.4L180.94 134.06L183.38 139.92L188.18 127.8H190.14L184.2 142H182.64L179.82 135.3L176.98 142H175.42L169.5 127.8H171.44L176.26 139.92L178.68 134.06L176.22 127.88Z" fill="#02B5DC"/>
</g>
</g>
<defs>
<filter id="filter0_d_5:9" x="103.454" y="127.4" width="129.85" height="48.582" filterUnits="userSpaceOnUse" color-interpolation-filters="sRGB">
<feFlood flood-opacity="0" result="BackgroundImageFix"/>
<feColorMatrix in="SourceAlpha" type="matrix" values="0 0 0 0 0 0 0 0 0 0 0 0 0 0 0 0 0 0 127 0" result="hardAlpha"/>
<feOffset dy="4"/>
<feGaussianBlur stdDeviation="2"/>
<feComposite in2="hardAlpha" operator="out"/>
<feColorMatrix type="matrix" values="0 0 0 0 0 0 0 0 0 0 0 0 0 0 0 0 0 0 0.25 0"/>
<feBlend mode="normal" in2="BackgroundImageFix" result="effect1_dropShadow_5:9"/>
<feBlend mode="normal" in="SourceGraphic" in2="effect1_dropShadow_5:9" result="shape"/>
</filter>
</defs>
</svg>
