<svg width="249" height="250" viewBox="0 0 249 250" fill="none" xmlns="http://www.w3.org/2000/svg">
<g id="Component 1">
<path id="Polygon 1" d="M88.4178 62.7906L181.849 114.714C189.47 118.949 189.79 129.793 182.433 134.47L96.3784 189.182C89.0209 193.86 79.3374 188.969 78.7357 180.271L71.359 73.6363C70.7293 64.5339 80.4425 58.3585 88.4178 62.7906Z" fill="#1CAE8B" stroke="#B39696"/>
<path id="Ellipse 1" d="M162.157 96.9317C178.207 122.177 170.756 155.651 145.516 171.698C120.275 187.746 86.8018 180.29 70.7516 155.045C54.7014 129.801 62.152 96.3265 87.3928 80.2788C112.634 64.2312 146.107 71.6869 162.157 96.9317Z" fill="#FFFCFC" stroke="#BCB0B0"/>
<g id="ToTheWorld Travel experiences" filter="url(#filter0_d_5:9)">
<path d="M75.7543 111.775H71.5893V122.485H70.0593V111.775H65.8943V110.415H75.7543V111.775ZM96.3734 111.775H92.2084V122.485H90.6784V111.775H86.5134V110.415H96.3734V111.775ZM122.603 110.483H124.048L125.646 114.682L127.261 110.483H128.706L126.615 115.736L128.689 120.717L132.769 110.415H134.435L129.386 122.485H128.06L125.663 116.79L123.249 122.485H121.923L116.891 110.415H118.54L122.637 120.717L124.694 115.736L122.603 110.483Z" fill="#1CAE8B"/>
<path d="M81.1307 122.655C80.2467 122.655 79.4647 122.445 78.7847 122.026C78.116 121.595 77.5947 121.034 77.2207 120.343C76.8467 119.64 76.6597 118.881 76.6597 118.065C76.6597 117.238 76.8467 116.478 77.2207 115.787C77.606 115.084 78.133 114.523 78.8017 114.104C79.4817 113.673 80.258 113.458 81.1307 113.458C82.0147 113.458 82.791 113.673 83.4597 114.104C84.1397 114.523 84.6667 115.084 85.0407 115.787C85.426 116.478 85.6187 117.238 85.6187 118.065C85.6187 118.881 85.426 119.64 85.0407 120.343C84.6667 121.034 84.1453 121.595 83.4767 122.026C82.808 122.445 82.026 122.655 81.1307 122.655ZM78.1897 118.082C78.1897 118.694 78.32 119.249 78.5807 119.748C78.8527 120.247 79.2097 120.643 79.6517 120.938C80.0937 121.221 80.5867 121.363 81.1307 121.363C81.6747 121.363 82.1677 121.216 82.6097 120.921C83.063 120.626 83.42 120.23 83.6807 119.731C83.9527 119.221 84.0887 118.66 84.0887 118.048C84.0887 117.436 83.9527 116.881 83.6807 116.382C83.42 115.883 83.063 115.487 82.6097 115.192C82.1677 114.897 81.6747 114.75 81.1307 114.75C80.5867 114.75 80.0937 114.903 79.6517 115.209C79.2097 115.504 78.8527 115.9 78.5807 116.399C78.32 116.898 78.1897 117.459 78.1897 118.082ZM105.575 122.485H104.079V117.521C104.079 116.614 103.914 115.934 103.586 115.481C103.268 115.028 102.809 114.801 102.209 114.801C101.823 114.801 101.432 114.903 101.036 115.107C100.65 115.311 100.31 115.589 100.016 115.94C99.7212 116.28 99.5058 116.677 99.3698 117.13V122.485H97.8738V110.075H99.3698V115.515C99.7212 114.88 100.197 114.382 100.798 114.019C101.41 113.645 102.067 113.458 102.77 113.458C103.472 113.458 104.028 113.622 104.436 113.951C104.844 114.28 105.133 114.727 105.303 115.294C105.484 115.849 105.575 116.478 105.575 117.181V122.485ZM111.828 122.655C110.944 122.655 110.162 122.445 109.482 122.026C108.802 121.607 108.269 121.046 107.884 120.343C107.499 119.64 107.306 118.875 107.306 118.048C107.306 117.209 107.499 116.444 107.884 115.753C108.269 115.062 108.802 114.506 109.482 114.087C110.173 113.668 110.961 113.458 111.845 113.458C112.74 113.458 113.517 113.673 114.174 114.104C114.843 114.523 115.358 115.079 115.721 115.77C116.095 116.45 116.282 117.187 116.282 117.98C116.282 118.229 116.271 118.422 116.248 118.558H108.887C108.932 119.136 109.091 119.652 109.363 120.105C109.646 120.547 110.009 120.898 110.451 121.159C110.893 121.408 111.369 121.533 111.879 121.533C112.423 121.533 112.933 121.397 113.409 121.125C113.896 120.853 114.231 120.496 114.412 120.054L115.704 120.411C115.421 121.068 114.928 121.607 114.225 122.026C113.522 122.445 112.723 122.655 111.828 122.655ZM108.836 117.521H114.888C114.843 116.943 114.678 116.433 114.395 115.991C114.112 115.549 113.749 115.203 113.307 114.954C112.865 114.705 112.378 114.58 111.845 114.58C111.324 114.58 110.842 114.705 110.4 114.954C109.958 115.203 109.595 115.549 109.312 115.991C109.04 116.433 108.881 116.943 108.836 117.521ZM139.651 122.655C138.767 122.655 137.985 122.445 137.305 122.026C136.637 121.595 136.115 121.034 135.741 120.343C135.367 119.64 135.18 118.881 135.18 118.065C135.18 117.238 135.367 116.478 135.741 115.787C136.127 115.084 136.654 114.523 137.322 114.104C138.002 113.673 138.779 113.458 139.651 113.458C140.535 113.458 141.312 113.673 141.98 114.104C142.66 114.523 143.187 115.084 143.561 115.787C143.947 116.478 144.139 117.238 144.139 118.065C144.139 118.881 143.947 119.64 143.561 120.343C143.187 121.034 142.666 121.595 141.997 122.026C141.329 122.445 140.547 122.655 139.651 122.655ZM136.71 118.082C136.71 118.694 136.841 119.249 137.101 119.748C137.373 120.247 137.73 120.643 138.172 120.938C138.614 121.221 139.107 121.363 139.651 121.363C140.195 121.363 140.688 121.216 141.13 120.921C141.584 120.626 141.941 120.23 142.201 119.731C142.473 119.221 142.609 118.66 142.609 118.048C142.609 117.436 142.473 116.881 142.201 116.382C141.941 115.883 141.584 115.487 141.13 115.192C140.688 114.897 140.195 114.75 139.651 114.75C139.107 114.75 138.614 114.903 138.172 115.209C137.73 115.504 137.373 115.9 137.101 116.399C136.841 116.898 136.71 117.459 136.71 118.082ZM150.644 114.92C149.896 114.931 149.233 115.124 148.655 115.498C148.088 115.861 147.686 116.365 147.448 117.011V122.485H145.952V113.611H147.346V115.668C147.652 115.056 148.054 114.563 148.553 114.189C149.063 113.804 149.596 113.588 150.151 113.543C150.264 113.543 150.361 113.543 150.44 113.543C150.519 113.543 150.587 113.549 150.644 113.56V114.92ZM152.162 110.075H153.658V120.19C153.658 120.677 153.726 120.978 153.862 121.091C153.998 121.204 154.162 121.261 154.355 121.261C154.593 121.261 154.819 121.238 155.035 121.193C155.25 121.136 155.431 121.08 155.579 121.023L155.817 122.247C155.567 122.349 155.273 122.434 154.933 122.502C154.593 122.57 154.292 122.604 154.032 122.604C153.454 122.604 152.995 122.44 152.655 122.111C152.326 121.782 152.162 121.323 152.162 120.734V110.075ZM156.414 118.065C156.414 117.226 156.584 116.461 156.924 115.77C157.275 115.067 157.751 114.506 158.352 114.087C158.964 113.668 159.661 113.458 160.443 113.458C161.157 113.458 161.797 113.645 162.364 114.019C162.931 114.393 163.373 114.846 163.69 115.379V110.075H165.186V120.785C165.186 121.136 165.345 121.318 165.662 121.329V122.485C165.379 122.53 165.158 122.553 164.999 122.553C164.704 122.553 164.444 122.451 164.217 122.247C164.002 122.043 163.894 121.816 163.894 121.567V120.819C163.543 121.386 163.072 121.833 162.483 122.162C161.894 122.491 161.282 122.655 160.647 122.655C159.831 122.655 159.1 122.445 158.454 122.026C157.819 121.595 157.321 121.034 156.958 120.343C156.595 119.64 156.414 118.881 156.414 118.065ZM163.69 119.374V116.824C163.554 116.439 163.333 116.093 163.027 115.787C162.721 115.47 162.375 115.22 161.99 115.039C161.616 114.846 161.242 114.75 160.868 114.75C160.29 114.75 159.78 114.909 159.338 115.226C158.907 115.543 158.567 115.957 158.318 116.467C158.08 116.977 157.961 117.515 157.961 118.082C157.961 118.671 158.091 119.215 158.352 119.714C158.624 120.213 158.992 120.615 159.457 120.921C159.922 121.216 160.437 121.363 161.004 121.363C161.367 121.363 161.741 121.278 162.126 121.108C162.511 120.927 162.851 120.683 163.146 120.377C163.441 120.071 163.622 119.737 163.69 119.374ZM105.59 136.295H102.405V144.485H101.235V136.295H98.0504V135.255H105.59V136.295ZM109.272 138.7C108.7 138.709 108.193 138.856 107.751 139.142C107.318 139.419 107.01 139.805 106.828 140.299V144.485H105.684V137.699H106.75V139.272C106.984 138.804 107.292 138.427 107.673 138.141C108.063 137.846 108.47 137.682 108.895 137.647C108.982 137.647 109.055 137.647 109.116 137.647C109.177 137.647 109.229 137.651 109.272 137.66V138.7ZM109.874 142.522C109.874 142.089 109.995 141.716 110.238 141.404C110.489 141.083 110.831 140.836 111.265 140.663C111.698 140.49 112.201 140.403 112.773 140.403C113.076 140.403 113.397 140.429 113.735 140.481C114.073 140.524 114.372 140.594 114.632 140.689V140.195C114.632 139.675 114.476 139.268 114.164 138.973C113.852 138.67 113.41 138.518 112.838 138.518C112.465 138.518 112.105 138.587 111.759 138.726C111.421 138.856 111.061 139.047 110.68 139.298L110.264 138.492C110.706 138.189 111.148 137.963 111.59 137.816C112.032 137.66 112.491 137.582 112.968 137.582C113.834 137.582 114.519 137.825 115.022 138.31C115.524 138.787 115.776 139.454 115.776 140.312V143.185C115.776 143.454 115.897 143.592 116.14 143.601V144.485C116.027 144.502 115.927 144.515 115.841 144.524C115.763 144.533 115.698 144.537 115.646 144.537C115.377 144.537 115.173 144.463 115.035 144.316C114.905 144.169 114.831 144.013 114.814 143.848L114.788 143.419C114.493 143.8 114.107 144.095 113.631 144.303C113.154 144.511 112.682 144.615 112.214 144.615C111.763 144.615 111.36 144.524 111.005 144.342C110.649 144.151 110.372 143.9 110.173 143.588C109.973 143.267 109.874 142.912 109.874 142.522ZM114.294 143.003C114.398 142.882 114.48 142.76 114.541 142.639C114.601 142.509 114.632 142.401 114.632 142.314V141.469C114.077 141.252 113.505 141.144 112.916 141.144C112.335 141.144 111.863 141.261 111.499 141.495C111.143 141.72 110.966 142.032 110.966 142.431C110.966 142.648 111.022 142.86 111.135 143.068C111.256 143.267 111.429 143.432 111.655 143.562C111.889 143.692 112.175 143.757 112.513 143.757C112.868 143.757 113.206 143.688 113.527 143.549C113.847 143.402 114.103 143.22 114.294 143.003ZM119.339 144.485L116.674 137.699H117.87L120.002 143.393L122.134 137.699H123.252L120.587 144.485H119.339ZM127.171 144.615C126.495 144.615 125.897 144.455 125.377 144.134C124.857 143.813 124.45 143.384 124.155 142.847C123.861 142.31 123.713 141.725 123.713 141.092C123.713 140.451 123.861 139.866 124.155 139.337C124.45 138.808 124.857 138.384 125.377 138.063C125.906 137.742 126.508 137.582 127.184 137.582C127.869 137.582 128.463 137.747 128.965 138.076C129.477 138.397 129.871 138.821 130.148 139.35C130.434 139.87 130.577 140.433 130.577 141.04C130.577 141.231 130.569 141.378 130.551 141.482H124.922C124.957 141.924 125.078 142.318 125.286 142.665C125.503 143.003 125.78 143.272 126.118 143.471C126.456 143.662 126.82 143.757 127.21 143.757C127.626 143.757 128.016 143.653 128.38 143.445C128.753 143.237 129.009 142.964 129.147 142.626L130.135 142.899C129.919 143.402 129.542 143.813 129.004 144.134C128.467 144.455 127.856 144.615 127.171 144.615ZM124.883 140.689H129.511C129.477 140.247 129.351 139.857 129.134 139.519C128.918 139.181 128.64 138.917 128.302 138.726C127.964 138.535 127.592 138.44 127.184 138.44C126.786 138.44 126.417 138.535 126.079 138.726C125.741 138.917 125.464 139.181 125.247 139.519C125.039 139.857 124.918 140.247 124.883 140.689ZM131.875 134.995H133.019V142.73C133.019 143.103 133.071 143.332 133.175 143.419C133.279 143.506 133.405 143.549 133.552 143.549C133.734 143.549 133.907 143.532 134.072 143.497C134.237 143.454 134.375 143.41 134.488 143.367L134.67 144.303C134.479 144.381 134.254 144.446 133.994 144.498C133.734 144.55 133.504 144.576 133.305 144.576C132.863 144.576 132.512 144.45 132.252 144.199C132.001 143.948 131.875 143.597 131.875 143.146V134.995ZM82.9156 159.615C82.2396 159.615 81.6416 159.455 81.1216 159.134C80.6016 158.813 80.1942 158.384 79.8996 157.847C79.6049 157.31 79.4576 156.725 79.4576 156.092C79.4576 155.451 79.6049 154.866 79.8996 154.337C80.1942 153.808 80.6016 153.384 81.1216 153.063C81.6502 152.742 82.2526 152.582 82.9286 152.582C83.6132 152.582 84.2069 152.747 84.7096 153.076C85.2209 153.397 85.6152 153.821 85.8926 154.35C86.1786 154.87 86.3216 155.433 86.3216 156.04C86.3216 156.231 86.3129 156.378 86.2956 156.482H80.6666C80.7012 156.924 80.8226 157.318 81.0306 157.665C81.2472 158.003 81.5246 158.272 81.8626 158.471C82.2006 158.662 82.5646 158.757 82.9546 158.757C83.3706 158.757 83.7606 158.653 84.1246 158.445C84.4972 158.237 84.7529 157.964 84.8916 157.626L85.8796 157.899C85.6629 158.402 85.2859 158.813 84.7486 159.134C84.2112 159.455 83.6002 159.615 82.9156 159.615ZM80.6276 155.689H85.2556C85.2209 155.247 85.0952 154.857 84.8786 154.519C84.6619 154.181 84.3846 153.917 84.0466 153.726C83.7086 153.535 83.3359 153.44 82.9286 153.44C82.5299 153.44 82.1616 153.535 81.8236 153.726C81.4856 153.917 81.2082 154.181 80.9916 154.519C80.7836 154.857 80.6622 155.247 80.6276 155.689ZM87.8463 152.699L89.6403 155.195L89.7443 155.403L89.8613 155.195L91.6423 152.699H92.9163L90.4073 156.105L92.9293 159.485H91.6553L89.8613 157.002L89.7443 156.807L89.6403 157.002L87.8463 159.485H86.5723L89.0943 156.105L86.5853 152.699H87.8463ZM97.6574 159.615C97.1027 159.615 96.6087 159.476 96.1754 159.199C95.742 158.922 95.3997 158.571 95.1484 158.146V162.254H94.0044V152.699H95.0184V153.973C95.287 153.557 95.638 153.223 96.0714 152.972C96.5047 152.712 96.977 152.582 97.4884 152.582C97.9564 152.582 98.3854 152.677 98.7754 152.868C99.1654 153.059 99.5034 153.319 99.7894 153.648C100.075 153.977 100.296 154.354 100.452 154.779C100.617 155.195 100.699 155.633 100.699 156.092C100.699 156.733 100.569 157.323 100.309 157.86C100.058 158.397 99.7027 158.826 99.2434 159.147C98.784 159.459 98.2554 159.615 97.6574 159.615ZM97.3064 158.627C97.757 158.627 98.147 158.506 98.4764 158.263C98.8057 158.02 99.0614 157.704 99.2434 157.314C99.434 156.924 99.5294 156.517 99.5294 156.092C99.5294 155.633 99.4254 155.212 99.2174 154.831C99.018 154.45 98.7407 154.146 98.3854 153.921C98.0387 153.687 97.6444 153.57 97.2024 153.57C96.9337 153.57 96.6477 153.639 96.3444 153.778C96.0497 153.917 95.7897 154.103 95.5644 154.337C95.3477 154.562 95.209 154.814 95.1484 155.091V157.028C95.339 157.479 95.6294 157.86 96.0194 158.172C96.418 158.475 96.847 158.627 97.3064 158.627ZM105.107 159.615C104.431 159.615 103.833 159.455 103.313 159.134C102.793 158.813 102.386 158.384 102.091 157.847C101.796 157.31 101.649 156.725 101.649 156.092C101.649 155.451 101.796 154.866 102.091 154.337C102.386 153.808 102.793 153.384 103.313 153.063C103.842 152.742 104.444 152.582 105.12 152.582C105.805 152.582 106.398 152.747 106.901 153.076C107.412 153.397 107.807 153.821 108.084 154.35C108.37 154.87 108.513 155.433 108.513 156.04C108.513 156.231 108.504 156.378 108.487 156.482H102.858C102.893 156.924 103.014 157.318 103.222 157.665C103.439 158.003 103.716 158.272 104.054 158.471C104.392 158.662 104.756 158.757 105.146 158.757C105.562 158.757 105.952 158.653 106.316 158.445C106.689 158.237 106.944 157.964 107.083 157.626L108.071 157.899C107.854 158.402 107.477 158.813 106.94 159.134C106.403 159.455 105.792 159.615 105.107 159.615ZM102.819 155.689H107.447C107.412 155.247 107.287 154.857 107.07 154.519C106.853 154.181 106.576 153.917 106.238 153.726C105.9 153.535 105.527 153.44 105.12 153.44C104.721 153.44 104.353 153.535 104.015 153.726C103.677 153.917 103.4 154.181 103.183 154.519C102.975 154.857 102.854 155.247 102.819 155.689ZM113.373 153.7C112.801 153.709 112.294 153.856 111.852 154.142C111.418 154.419 111.111 154.805 110.929 155.299V159.485H109.785V152.699H110.851V154.272C111.085 153.804 111.392 153.427 111.774 153.141C112.164 152.846 112.571 152.682 112.996 152.647C113.082 152.647 113.156 152.647 113.217 152.647C113.277 152.647 113.329 152.651 113.373 152.66V153.7ZM114.507 151.425V149.995H115.651V151.425H114.507ZM114.507 159.485V152.699H115.651V159.485H114.507ZM120.506 159.615C119.83 159.615 119.232 159.455 118.712 159.134C118.192 158.813 117.785 158.384 117.49 157.847C117.196 157.31 117.048 156.725 117.048 156.092C117.048 155.451 117.196 154.866 117.49 154.337C117.785 153.808 118.192 153.384 118.712 153.063C119.241 152.742 119.843 152.582 120.519 152.582C121.204 152.582 121.798 152.747 122.3 153.076C122.812 153.397 123.206 153.821 123.483 154.35C123.769 154.87 123.912 155.433 123.912 156.04C123.912 156.231 123.904 156.378 123.886 156.482H118.257C118.292 156.924 118.413 157.318 118.621 157.665C118.838 158.003 119.115 158.272 119.453 158.471C119.791 158.662 120.155 158.757 120.545 158.757C120.961 158.757 121.351 158.653 121.715 158.445C122.088 158.237 122.344 157.964 122.482 157.626L123.47 157.899C123.254 158.402 122.877 158.813 122.339 159.134C121.802 159.455 121.191 159.615 120.506 159.615ZM118.218 155.689H122.846C122.812 155.247 122.686 154.857 122.469 154.519C122.253 154.181 121.975 153.917 121.637 153.726C121.299 153.535 120.927 153.44 120.519 153.44C120.121 153.44 119.752 153.535 119.414 153.726C119.076 153.917 118.799 154.181 118.582 154.519C118.374 154.857 118.253 155.247 118.218 155.689ZM131.073 159.485H129.929V155.689C129.929 154.97 129.816 154.445 129.591 154.116C129.374 153.778 129.041 153.609 128.59 153.609C128.278 153.609 127.966 153.687 127.654 153.843C127.351 153.999 127.078 154.211 126.835 154.48C126.601 154.74 126.432 155.043 126.328 155.39V159.485H125.184V152.699H126.224V154.155C126.493 153.678 126.878 153.297 127.381 153.011C127.892 152.725 128.447 152.582 129.045 152.582C129.574 152.582 129.981 152.708 130.267 152.959C130.562 153.202 130.77 153.54 130.891 153.973C131.012 154.398 131.073 154.883 131.073 155.429V159.485ZM135.855 159.615C135.179 159.615 134.581 159.455 134.061 159.134C133.541 158.805 133.134 158.371 132.839 157.834C132.544 157.297 132.397 156.712 132.397 156.079C132.397 155.438 132.54 154.853 132.826 154.324C133.112 153.795 133.515 153.375 134.035 153.063C134.555 152.742 135.157 152.582 135.842 152.582C136.509 152.582 137.09 152.734 137.584 153.037C138.087 153.332 138.459 153.73 138.702 154.233L137.584 154.584C137.411 154.263 137.168 154.016 136.856 153.843C136.544 153.661 136.197 153.57 135.816 153.57C135.4 153.57 135.019 153.678 134.672 153.895C134.334 154.112 134.065 154.411 133.866 154.792C133.667 155.165 133.567 155.594 133.567 156.079C133.567 156.556 133.667 156.989 133.866 157.379C134.074 157.76 134.347 158.064 134.685 158.289C135.032 158.514 135.413 158.627 135.829 158.627C136.098 158.627 136.353 158.579 136.596 158.484C136.847 158.389 137.064 158.263 137.246 158.107C137.437 157.942 137.567 157.765 137.636 157.574L138.754 157.912C138.555 158.406 138.191 158.813 137.662 159.134C137.142 159.455 136.54 159.615 135.855 159.615ZM142.99 159.615C142.314 159.615 141.716 159.455 141.196 159.134C140.676 158.813 140.268 158.384 139.974 157.847C139.679 157.31 139.532 156.725 139.532 156.092C139.532 155.451 139.679 154.866 139.974 154.337C140.268 153.808 140.676 153.384 141.196 153.063C141.724 152.742 142.327 152.582 143.003 152.582C143.687 152.582 144.281 152.747 144.784 153.076C145.295 153.397 145.689 153.821 145.967 154.35C146.253 154.87 146.396 155.433 146.396 156.04C146.396 156.231 146.387 156.378 146.37 156.482H140.741C140.775 156.924 140.897 157.318 141.105 157.665C141.321 158.003 141.599 158.272 141.937 158.471C142.275 158.662 142.639 158.757 143.029 158.757C143.445 158.757 143.835 158.653 144.199 158.445C144.571 158.237 144.827 157.964 144.966 157.626L145.954 157.899C145.737 158.402 145.36 158.813 144.823 159.134C144.285 159.455 143.674 159.615 142.99 159.615ZM140.702 155.689H145.33C145.295 155.247 145.169 154.857 144.953 154.519C144.736 154.181 144.459 153.917 144.121 153.726C143.783 153.535 143.41 153.44 143.003 153.44C142.604 153.44 142.236 153.535 141.898 153.726C141.56 153.917 141.282 154.181 141.066 154.519C140.858 154.857 140.736 155.247 140.702 155.689ZM149.994 159.615C149.431 159.615 148.902 159.524 148.408 159.342C147.914 159.151 147.49 158.87 147.134 158.497L147.576 157.691C147.966 158.055 148.356 158.315 148.746 158.471C149.136 158.627 149.535 158.705 149.942 158.705C150.41 158.705 150.792 158.618 151.086 158.445C151.381 158.263 151.528 157.999 151.528 157.652C151.528 157.401 151.45 157.214 151.294 157.093C151.147 156.972 150.935 156.872 150.657 156.794C150.38 156.707 150.051 156.612 149.669 156.508C148.967 156.309 148.43 156.075 148.057 155.806C147.693 155.529 147.511 155.126 147.511 154.597C147.511 153.956 147.754 153.462 148.239 153.115C148.733 152.76 149.362 152.582 150.124 152.582C151.147 152.582 151.953 152.89 152.542 153.505L152.022 154.298C151.494 153.752 150.839 153.479 150.059 153.479C149.825 153.479 149.596 153.509 149.37 153.57C149.145 153.622 148.959 153.722 148.811 153.869C148.664 154.008 148.59 154.207 148.59 154.467C148.59 154.788 148.72 155.017 148.98 155.156C149.24 155.295 149.622 155.438 150.124 155.585C150.636 155.732 151.078 155.88 151.45 156.027C151.832 156.174 152.126 156.365 152.334 156.599C152.542 156.833 152.646 157.158 152.646 157.574C152.646 158.215 152.404 158.718 151.918 159.082C151.433 159.437 150.792 159.615 149.994 159.615Z" fill="black"/>
</g>
</g>
<defs>
<filter id="filter0_d_5:9" x="61.8943" y="110.075" width="107.768" height="60.179" filterUnits="userSpaceOnUse" color-interpolation-filters="sRGB">
<feFlood flood-opacity="0" result="BackgroundImageFix"/>
<feColorMatrix in="SourceAlpha" type="matrix" values="0 0 0 0 0 0 0 0 0 0 0 0 0 0 0 0 0 0 127 0" result="hardAlpha"/>
<feOffset dy="4"/>
<feGaussianBlur stdDeviation="2"/>
<feComposite in2="hardAlpha" operator="out"/>
<feColorMatrix type="matrix" values="0 0 0 0 0 0 0 0 0 0 0 0 0 0 0 0 0 0 0.25 0"/>
<feBlend mode="normal" in2="BackgroundImageFix" result="effect1_dropShadow_5:9"/>
<feBlend mode="normal" in="SourceGraphic" in2="effect1_dropShadow_5:9" result="shape"/>
</filter>
</defs>
</svg>
