<svg width="336" height="407" viewBox="0 0 336 407" fill="none" xmlns="http://www.w3.org/2000/svg">
<rect width="336" height="407" fill="#E5E5E5"/>
<path d="M77.1993 252.608L262.382 247.739L165.574 405.677L77.1993 252.608Z" fill="#02B5DC" stroke="#B39696"/>
<circle cx="168" cy="168" r="167.5" fill="#FFFCFC" stroke="#BCB0B0"/>
<g filter="url(#filter0_d_0:1)">
<path d="M55.5578 136.896H43.4138V168H40.0538V136.896H27.9098V133.92H55.5578V136.896Z" fill="#02B5DC"/>
<path d="M70.6466 168.48C68.2466 168.48 66.1026 167.888 64.2146 166.704C62.3586 165.52 60.9026 163.952 59.8466 162C58.7906 160.016 58.2626 157.872 58.2626 155.568C58.2626 153.232 58.7906 151.088 59.8466 149.136C60.9346 147.152 62.4066 145.568 64.2626 144.384C66.1506 143.168 68.2786 142.56 70.6466 142.56C73.0466 142.56 75.1746 143.168 77.0306 144.384C78.9186 145.568 80.3906 147.152 81.4466 149.136C82.5346 151.088 83.0786 153.232 83.0786 155.568C83.0786 157.872 82.5506 160.016 81.4946 162C80.4386 163.952 78.9666 165.52 77.0786 166.704C75.2226 167.888 73.0786 168.48 70.6466 168.48ZM61.5746 155.616C61.5746 157.472 61.9746 159.168 62.7746 160.704C63.6066 162.208 64.7106 163.408 66.0866 164.304C67.4626 165.168 68.9826 165.6 70.6466 165.6C72.3106 165.6 73.8306 165.152 75.2066 164.256C76.5826 163.36 77.6866 162.144 78.5186 160.608C79.3506 159.072 79.7666 157.376 79.7666 155.52C79.7666 153.664 79.3506 151.968 78.5186 150.432C77.6866 148.896 76.5826 147.68 75.2066 146.784C73.8306 145.888 72.3106 145.44 70.6466 145.44C69.0146 145.44 67.5106 145.904 66.1346 146.832C64.7586 147.728 63.6546 148.944 62.8226 150.48C61.9906 152.016 61.5746 153.728 61.5746 155.616ZM138.858 168H135.594V154.032C135.594 148.368 133.674 145.536 129.834 145.536C128.586 145.536 127.37 145.856 126.186 146.496C125.002 147.104 123.946 147.952 123.018 149.04C122.122 150.096 121.482 151.312 121.098 152.688V168H117.834V132.96H121.098V148.656C122.09 146.8 123.466 145.328 125.226 144.24C127.018 143.12 128.922 142.56 130.938 142.56C132.858 142.56 134.394 143.024 135.546 143.952C136.698 144.848 137.53 146.112 138.042 147.744C138.586 149.344 138.858 151.216 138.858 153.36V168ZM156.619 168.48C154.219 168.48 152.075 167.888 150.187 166.704C148.299 165.52 146.811 163.936 145.723 161.952C144.635 159.968 144.091 157.792 144.091 155.424C144.091 153.088 144.619 150.944 145.675 148.992C146.763 147.04 148.251 145.488 150.139 144.336C152.027 143.152 154.171 142.56 156.571 142.56C159.035 142.56 161.195 143.152 163.051 144.336C164.907 145.52 166.347 147.088 167.371 149.04C168.427 150.96 168.955 153.072 168.955 155.376C168.955 155.888 168.939 156.32 168.907 156.672H147.499C147.659 158.464 148.171 160.064 149.035 161.472C149.899 162.848 151.003 163.952 152.347 164.784C153.691 165.584 155.163 165.984 156.763 165.984C158.395 165.984 159.931 165.568 161.371 164.736C162.811 163.904 163.835 162.816 164.443 161.472L167.275 162.24C166.763 163.456 165.963 164.544 164.875 165.504C163.819 166.432 162.587 167.168 161.179 167.712C159.771 168.224 158.251 168.48 156.619 168.48ZM147.403 154.32H165.883C165.755 152.528 165.259 150.944 164.395 149.568C163.531 148.16 162.427 147.072 161.083 146.304C159.739 145.504 158.251 145.104 156.619 145.104C154.987 145.104 153.499 145.504 152.155 146.304C150.811 147.072 149.707 148.16 148.843 149.568C148.011 150.944 147.531 152.528 147.403 154.32ZM234.85 168.48C232.45 168.48 230.306 167.888 228.418 166.704C226.562 165.52 225.106 163.952 224.05 162C222.994 160.016 222.466 157.872 222.466 155.568C222.466 153.232 222.994 151.088 224.05 149.136C225.138 147.152 226.61 145.568 228.466 144.384C230.354 143.168 232.482 142.56 234.85 142.56C237.25 142.56 239.378 143.168 241.234 144.384C243.122 145.568 244.594 147.152 245.65 149.136C246.738 151.088 247.282 153.232 247.282 155.568C247.282 157.872 246.754 160.016 245.698 162C244.642 163.952 243.17 165.52 241.282 166.704C239.426 167.888 237.282 168.48 234.85 168.48ZM225.778 155.616C225.778 157.472 226.178 159.168 226.978 160.704C227.81 162.208 228.914 163.408 230.29 164.304C231.666 165.168 233.186 165.6 234.85 165.6C236.514 165.6 238.034 165.152 239.41 164.256C240.786 163.36 241.89 162.144 242.722 160.608C243.554 159.072 243.97 157.376 243.97 155.52C243.97 153.664 243.554 151.968 242.722 150.432C241.89 148.896 240.786 147.68 239.41 146.784C238.034 145.888 236.514 145.44 234.85 145.44C233.218 145.44 231.714 145.904 230.338 146.832C228.962 147.728 227.858 148.944 227.026 150.48C226.194 152.016 225.778 153.728 225.778 155.616ZM265.221 145.872C263.045 145.936 261.125 146.544 259.461 147.696C257.829 148.848 256.677 150.432 256.005 152.448V168H252.741V142.992H255.813V148.992C256.677 147.232 257.813 145.808 259.221 144.72C260.661 143.632 262.181 143.024 263.781 142.896C264.101 142.864 264.373 142.848 264.597 142.848C264.821 142.848 265.029 142.864 265.221 142.896V145.872ZM269.713 132.96H272.977V162.336C272.977 163.584 273.185 164.4 273.601 164.784C274.049 165.168 274.609 165.36 275.281 165.36C275.857 165.36 276.433 165.296 277.009 165.168C277.617 165.04 278.113 164.912 278.497 164.784L279.073 167.424C278.465 167.68 277.713 167.888 276.817 168.048C275.953 168.208 275.201 168.288 274.561 168.288C273.089 168.288 271.905 167.856 271.009 166.992C270.145 166.128 269.713 164.944 269.713 163.44V132.96ZM280.967 155.568C280.967 153.2 281.447 151.04 282.407 149.088C283.399 147.104 284.759 145.52 286.487 144.336C288.215 143.152 290.183 142.56 292.391 142.56C294.471 142.56 296.327 143.12 297.959 144.24C299.623 145.328 300.919 146.656 301.847 148.224V132.96H305.111V164.064C305.111 164.928 305.495 165.376 306.263 165.408V168C305.623 168.096 305.127 168.128 304.775 168.096C304.071 168.064 303.463 167.808 302.951 167.328C302.471 166.816 302.231 166.24 302.231 165.6V163.152C301.239 164.784 299.895 166.08 298.199 167.04C296.503 168 294.743 168.48 292.919 168.48C291.191 168.48 289.591 168.128 288.119 167.424C286.647 166.72 285.367 165.76 284.279 164.544C283.223 163.328 282.407 161.952 281.831 160.416C281.255 158.848 280.967 157.232 280.967 155.568ZM301.847 159.408V151.68C301.431 150.528 300.759 149.488 299.831 148.56C298.903 147.6 297.847 146.848 296.663 146.304C295.511 145.728 294.359 145.44 293.207 145.44C291.415 145.44 289.847 145.936 288.503 146.928C287.191 147.888 286.167 149.152 285.431 150.72C284.695 152.256 284.327 153.872 284.327 155.568C284.327 157.36 284.727 159.024 285.527 160.56C286.359 162.096 287.479 163.328 288.887 164.256C290.295 165.152 291.879 165.6 293.639 165.6C294.727 165.6 295.863 165.328 297.047 164.784C298.263 164.208 299.319 163.456 300.215 162.528C301.143 161.6 301.687 160.56 301.847 159.408ZM78.7203 180.448H72.6483V196H70.9683V180.448H64.8963V178.96H78.7203V180.448ZM85.0205 184.936C83.9325 184.968 82.9725 185.272 82.1405 185.848C81.3245 186.424 80.7485 187.216 80.4125 188.224V196H78.7805V183.496H80.3165V186.496C80.7485 185.616 81.3165 184.904 82.0205 184.36C82.7405 183.816 83.5005 183.512 84.3005 183.448C84.4605 183.432 84.5965 183.424 84.7085 183.424C84.8205 183.424 84.9245 183.432 85.0205 183.448V184.936ZM86.1397 192.4C86.1397 191.632 86.3637 190.968 86.8117 190.408C87.2597 189.832 87.8757 189.384 88.6597 189.064C89.4597 188.744 90.3797 188.584 91.4197 188.584C92.0277 188.584 92.6597 188.64 93.3157 188.752C93.9717 188.848 94.5557 188.984 95.0677 189.16V188.104C95.0677 187.048 94.7557 186.208 94.1317 185.584C93.5077 184.96 92.6437 184.648 91.5397 184.648C90.8837 184.648 90.2277 184.776 89.5717 185.032C88.9157 185.272 88.2357 185.632 87.5317 186.112L86.9077 184.96C87.7237 184.4 88.5237 183.984 89.3077 183.712C90.0917 183.424 90.8917 183.28 91.7077 183.28C93.2437 183.28 94.4597 183.72 95.3557 184.6C96.2517 185.48 96.6997 186.696 96.6997 188.248V194.032C96.6997 194.464 96.8997 194.688 97.2997 194.704V196C96.9477 196.048 96.6997 196.064 96.5557 196.048C96.1557 196.032 95.8517 195.904 95.6437 195.664C95.4357 195.424 95.3237 195.168 95.3077 194.896L95.2837 193.984C94.7237 194.704 93.9957 195.264 93.0997 195.664C92.2037 196.048 91.2917 196.24 90.3637 196.24C89.5477 196.24 88.8197 196.072 88.1797 195.736C87.5397 195.384 87.0357 194.92 86.6677 194.344C86.3157 193.752 86.1397 193.104 86.1397 192.4ZM94.5157 193.36C94.8837 192.928 95.0677 192.528 95.0677 192.16V190.336C93.9637 189.904 92.8117 189.688 91.6117 189.688C90.4437 189.688 89.4997 189.92 88.7797 190.384C88.0597 190.848 87.6997 191.48 87.6997 192.28C87.6997 192.968 87.9637 193.592 88.4917 194.152C89.0357 194.712 89.7877 194.992 90.7477 194.992C91.5317 194.992 92.2597 194.84 92.9317 194.536C93.6197 194.232 94.1477 193.84 94.5157 193.36ZM103.571 196L98.5068 183.496H100.211L104.483 194.368L108.779 183.496H110.387L105.323 196H103.571ZM117.626 196.24C116.426 196.24 115.354 195.944 114.41 195.352C113.466 194.76 112.722 193.968 112.178 192.976C111.634 191.984 111.362 190.896 111.362 189.712C111.362 188.544 111.626 187.472 112.154 186.496C112.698 185.52 113.442 184.744 114.386 184.168C115.33 183.576 116.402 183.28 117.602 183.28C118.834 183.28 119.914 183.576 120.842 184.168C121.77 184.76 122.49 185.544 123.002 186.52C123.53 187.48 123.794 188.536 123.794 189.688C123.794 189.944 123.786 190.16 123.77 190.336H113.066C113.146 191.232 113.402 192.032 113.834 192.736C114.266 193.424 114.818 193.976 115.49 194.392C116.162 194.792 116.898 194.992 117.698 194.992C118.514 194.992 119.282 194.784 120.002 194.368C120.722 193.952 121.234 193.408 121.538 192.736L122.954 193.12C122.698 193.728 122.298 194.272 121.754 194.752C121.226 195.216 120.61 195.584 119.906 195.856C119.202 196.112 118.442 196.24 117.626 196.24ZM113.018 189.16H122.258C122.194 188.264 121.946 187.472 121.514 186.784C121.082 186.08 120.53 185.536 119.858 185.152C119.186 184.752 118.442 184.552 117.626 184.552C116.81 184.552 116.066 184.752 115.394 185.152C114.722 185.536 114.17 186.08 113.738 186.784C113.322 187.472 113.082 188.264 113.018 189.16ZM126.384 178.48H128.016V193.168C128.016 193.792 128.12 194.2 128.328 194.392C128.552 194.584 128.832 194.68 129.168 194.68C129.456 194.68 129.744 194.648 130.032 194.584C130.336 194.52 130.584 194.456 130.776 194.392L131.064 195.712C130.76 195.84 130.384 195.944 129.936 196.024C129.504 196.104 129.128 196.144 128.808 196.144C128.072 196.144 127.48 195.928 127.032 195.496C126.6 195.064 126.384 194.472 126.384 193.72V178.48ZM143.641 196.24C142.441 196.24 141.369 195.944 140.425 195.352C139.481 194.76 138.737 193.968 138.193 192.976C137.649 191.984 137.377 190.896 137.377 189.712C137.377 188.544 137.641 187.472 138.169 186.496C138.713 185.52 139.457 184.744 140.401 184.168C141.345 183.576 142.417 183.28 143.617 183.28C144.849 183.28 145.929 183.576 146.857 184.168C147.785 184.76 148.505 185.544 149.017 186.52C149.545 187.48 149.809 188.536 149.809 189.688C149.809 189.944 149.801 190.16 149.785 190.336H139.081C139.161 191.232 139.417 192.032 139.849 192.736C140.281 193.424 140.833 193.976 141.505 194.392C142.177 194.792 142.913 194.992 143.713 194.992C144.529 194.992 145.297 194.784 146.017 194.368C146.737 193.952 147.249 193.408 147.553 192.736L148.969 193.12C148.713 193.728 148.313 194.272 147.769 194.752C147.241 195.216 146.625 195.584 145.921 195.856C145.217 196.112 144.457 196.24 143.641 196.24ZM139.033 189.16H148.273C148.209 188.264 147.961 187.472 147.529 186.784C147.097 186.08 146.545 185.536 145.873 185.152C145.201 184.752 144.457 184.552 143.641 184.552C142.825 184.552 142.081 184.752 141.409 185.152C140.737 185.536 140.185 186.08 139.753 186.784C139.337 187.472 139.097 188.264 139.033 189.16ZM152.243 183.496L155.915 188.392L156.107 188.752L156.299 188.392L159.947 183.496H161.795L157.043 189.784L161.795 196H159.947L156.299 191.128L156.107 190.792L155.915 191.128L152.267 196H150.419L155.147 189.784L150.419 183.496H152.243ZM170.336 196.24C169.296 196.24 168.36 195.968 167.528 195.424C166.712 194.88 166.064 194.208 165.584 193.408V201.112H163.952V183.496H165.416V185.92C165.912 185.136 166.568 184.504 167.384 184.024C168.216 183.528 169.112 183.28 170.072 183.28C170.936 183.28 171.728 183.464 172.448 183.832C173.168 184.184 173.792 184.664 174.32 185.272C174.864 185.88 175.28 186.576 175.568 187.36C175.856 188.128 176 188.928 176 189.76C176 190.928 175.76 192.008 175.28 193C174.816 193.976 174.152 194.76 173.288 195.352C172.44 195.944 171.456 196.24 170.336 196.24ZM169.88 194.8C170.792 194.8 171.576 194.56 172.232 194.08C172.904 193.584 173.424 192.952 173.792 192.184C174.16 191.416 174.344 190.608 174.344 189.76C174.344 188.864 174.136 188.032 173.72 187.264C173.304 186.496 172.744 185.88 172.04 185.416C171.352 184.952 170.568 184.72 169.688 184.72C169.144 184.72 168.568 184.864 167.96 185.152C167.368 185.424 166.84 185.8 166.376 186.28C165.928 186.744 165.664 187.256 165.584 187.816V191.656C165.952 192.536 166.528 193.28 167.312 193.888C168.096 194.496 168.952 194.8 169.88 194.8ZM184.165 196.24C182.965 196.24 181.893 195.944 180.949 195.352C180.005 194.76 179.261 193.968 178.717 192.976C178.173 191.984 177.901 190.896 177.901 189.712C177.901 188.544 178.165 187.472 178.693 186.496C179.237 185.52 179.981 184.744 180.925 184.168C181.869 183.576 182.941 183.28 184.141 183.28C185.373 183.28 186.453 183.576 187.381 184.168C188.309 184.76 189.029 185.544 189.541 186.52C190.069 187.48 190.333 188.536 190.333 189.688C190.333 189.944 190.325 190.16 190.309 190.336H179.605C179.685 191.232 179.941 192.032 180.373 192.736C180.805 193.424 181.357 193.976 182.029 194.392C182.701 194.792 183.437 194.992 184.237 194.992C185.053 194.992 185.821 194.784 186.541 194.368C187.261 193.952 187.773 193.408 188.077 192.736L189.493 193.12C189.237 193.728 188.837 194.272 188.293 194.752C187.765 195.216 187.149 195.584 186.445 195.856C185.741 196.112 184.981 196.24 184.165 196.24ZM179.557 189.16H188.797C188.733 188.264 188.485 187.472 188.053 186.784C187.621 186.08 187.069 185.536 186.397 185.152C185.725 184.752 184.981 184.552 184.165 184.552C183.349 184.552 182.605 184.752 181.933 185.152C181.261 185.536 180.709 186.08 180.277 186.784C179.861 187.472 179.621 188.264 179.557 189.16ZM199.091 184.936C198.003 184.968 197.043 185.272 196.211 185.848C195.395 186.424 194.819 187.216 194.483 188.224V196H192.851V183.496H194.387V186.496C194.819 185.616 195.387 184.904 196.091 184.36C196.811 183.816 197.571 183.512 198.371 183.448C198.531 183.432 198.667 183.424 198.779 183.424C198.891 183.424 198.995 183.432 199.091 183.448V184.936ZM201.265 180.88V178.48H202.897V180.88H201.265ZM201.265 196V183.496H202.897V196H201.265ZM211.891 196.24C210.691 196.24 209.619 195.944 208.675 195.352C207.731 194.76 206.987 193.968 206.443 192.976C205.899 191.984 205.627 190.896 205.627 189.712C205.627 188.544 205.891 187.472 206.419 186.496C206.963 185.52 207.707 184.744 208.651 184.168C209.595 183.576 210.667 183.28 211.867 183.28C213.099 183.28 214.179 183.576 215.107 184.168C216.035 184.76 216.755 185.544 217.267 186.52C217.795 187.48 218.059 188.536 218.059 189.688C218.059 189.944 218.051 190.16 218.035 190.336H207.331C207.411 191.232 207.667 192.032 208.099 192.736C208.531 193.424 209.083 193.976 209.755 194.392C210.427 194.792 211.163 194.992 211.963 194.992C212.779 194.992 213.547 194.784 214.267 194.368C214.987 193.952 215.499 193.408 215.803 192.736L217.219 193.12C216.963 193.728 216.563 194.272 216.019 194.752C215.491 195.216 214.875 195.584 214.171 195.856C213.467 196.112 212.707 196.24 211.891 196.24ZM207.283 189.16H216.523C216.459 188.264 216.211 187.472 215.779 186.784C215.347 186.08 214.795 185.536 214.123 185.152C213.451 184.752 212.707 184.552 211.891 184.552C211.075 184.552 210.331 184.752 209.659 185.152C208.987 185.536 208.435 186.08 208.003 186.784C207.587 187.472 207.347 188.264 207.283 189.16ZM231.089 196H229.457V189.016C229.457 187.544 229.233 186.472 228.785 185.8C228.353 185.112 227.681 184.768 226.769 184.768C226.129 184.768 225.497 184.928 224.873 185.248C224.249 185.552 223.697 185.976 223.217 186.52C222.753 187.048 222.417 187.656 222.209 188.344V196H220.577V183.496H222.065V186.328C222.561 185.416 223.289 184.68 224.249 184.12C225.209 183.56 226.249 183.28 227.369 183.28C228.297 183.28 229.033 183.504 229.577 183.952C230.121 184.384 230.505 185.008 230.729 185.824C230.969 186.624 231.089 187.576 231.089 188.68V196ZM239.994 196.24C238.778 196.24 237.698 195.944 236.754 195.352C235.81 194.744 235.066 193.952 234.522 192.976C233.978 191.984 233.706 190.896 233.706 189.712C233.706 188.528 233.97 187.456 234.498 186.496C235.026 185.52 235.762 184.744 236.706 184.168C237.65 183.576 238.738 183.28 239.97 183.28C241.138 183.28 242.162 183.552 243.042 184.096C243.938 184.624 244.61 185.344 245.058 186.256L243.474 186.76C243.122 186.12 242.626 185.624 241.986 185.272C241.362 184.904 240.666 184.72 239.898 184.72C239.05 184.72 238.282 184.936 237.594 185.368C236.922 185.8 236.378 186.4 235.962 187.168C235.562 187.92 235.362 188.768 235.362 189.712C235.362 190.656 235.57 191.512 235.986 192.28C236.402 193.048 236.954 193.664 237.642 194.128C238.33 194.576 239.09 194.8 239.922 194.8C240.466 194.8 240.994 194.704 241.506 194.512C242.018 194.32 242.458 194.064 242.826 193.744C243.194 193.408 243.442 193.048 243.57 192.664L245.178 193.144C244.954 193.736 244.586 194.272 244.074 194.752C243.562 195.216 242.954 195.584 242.25 195.856C241.546 196.112 240.794 196.24 239.994 196.24ZM253.024 196.24C251.824 196.24 250.752 195.944 249.808 195.352C248.864 194.76 248.12 193.968 247.576 192.976C247.032 191.984 246.76 190.896 246.76 189.712C246.76 188.544 247.024 187.472 247.552 186.496C248.096 185.52 248.84 184.744 249.784 184.168C250.728 183.576 251.8 183.28 253 183.28C254.232 183.28 255.312 183.576 256.24 184.168C257.168 184.76 257.888 185.544 258.4 186.52C258.928 187.48 259.192 188.536 259.192 189.688C259.192 189.944 259.184 190.16 259.168 190.336H248.464C248.544 191.232 248.8 192.032 249.232 192.736C249.664 193.424 250.216 193.976 250.888 194.392C251.56 194.792 252.296 194.992 253.096 194.992C253.912 194.992 254.68 194.784 255.4 194.368C256.12 193.952 256.632 193.408 256.936 192.736L258.352 193.12C258.096 193.728 257.696 194.272 257.152 194.752C256.624 195.216 256.008 195.584 255.304 195.856C254.6 196.112 253.84 196.24 253.024 196.24ZM248.416 189.16H257.656C257.592 188.264 257.344 187.472 256.912 186.784C256.48 186.08 255.928 185.536 255.256 185.152C254.584 184.752 253.84 184.552 253.024 184.552C252.208 184.552 251.464 184.752 250.792 185.152C250.12 185.536 249.568 186.08 249.136 186.784C248.72 187.472 248.48 188.264 248.416 189.16ZM265.814 196.24C264.79 196.24 263.838 196.072 262.958 195.736C262.094 195.384 261.334 194.872 260.678 194.2L261.35 193.048C262.054 193.704 262.758 194.184 263.462 194.488C264.182 194.776 264.942 194.92 265.742 194.92C266.702 194.92 267.486 194.728 268.094 194.344C268.718 193.944 269.03 193.376 269.03 192.64C269.03 192.144 268.878 191.768 268.574 191.512C268.286 191.24 267.862 191.024 267.302 190.864C266.758 190.704 266.102 190.52 265.334 190.312C264.47 190.072 263.742 189.824 263.15 189.568C262.574 189.296 262.134 188.96 261.83 188.56C261.542 188.144 261.398 187.608 261.398 186.952C261.398 186.152 261.598 185.48 261.998 184.936C262.414 184.392 262.974 183.984 263.678 183.712C264.398 183.424 265.198 183.28 266.078 183.28C267.038 183.28 267.886 183.432 268.622 183.736C269.358 184.04 269.958 184.464 270.422 185.008L269.63 186.112C269.198 185.6 268.662 185.224 268.022 184.984C267.398 184.728 266.718 184.6 265.982 184.6C265.47 184.6 264.982 184.672 264.518 184.816C264.054 184.944 263.67 185.168 263.366 185.488C263.078 185.792 262.934 186.216 262.934 186.76C262.934 187.432 263.182 187.896 263.678 188.152C264.174 188.408 264.926 188.68 265.934 188.968C266.878 189.224 267.702 189.48 268.406 189.736C269.11 189.992 269.654 190.336 270.038 190.768C270.422 191.184 270.614 191.768 270.614 192.52C270.614 193.688 270.174 194.6 269.294 195.256C268.414 195.912 267.254 196.24 265.814 196.24Z" fill="black"/>
<path d="M113.402 136.896H101.258V168H97.8975V136.896H85.7535V133.92H113.402V136.896Z" fill="#1DBD24"/>
<path d="M187.479 134.16H190.647L195.447 146.256L200.295 134.16H203.511L197.559 148.704L204.087 164.112L216.423 133.92H220.071L205.623 168H202.647L195.495 151.152L188.295 168H185.367L170.967 133.92H174.567L186.951 164.112L193.431 148.704L187.479 134.16Z" fill="#02B5DC"/>
</g>
<defs>
<filter id="filter0_d_0:1" x="23.9097" y="132.96" width="286.353" height="76.152" filterUnits="userSpaceOnUse" color-interpolation-filters="sRGB">
<feFlood flood-opacity="0" result="BackgroundImageFix"/>
<feColorMatrix in="SourceAlpha" type="matrix" values="0 0 0 0 0 0 0 0 0 0 0 0 0 0 0 0 0 0 127 0" result="hardAlpha"/>
<feOffset dy="4"/>
<feGaussianBlur stdDeviation="2"/>
<feComposite in2="hardAlpha" operator="out"/>
<feColorMatrix type="matrix" values="0 0 0 0 0 0 0 0 0 0 0 0 0 0 0 0 0 0 0.25 0"/>
<feBlend mode="normal" in2="BackgroundImageFix" result="effect1_dropShadow_0:1"/>
<feBlend mode="normal" in="SourceGraphic" in2="effect1_dropShadow_0:1" result="shape"/>
</filter>
</defs>
</svg>
